<svg xmlns="http://www.w3.org/2000/svg" id="Layer_1" height="512" viewBox="0 0 512 512" width="512"><path d="m480 115h-100.901c3.739-4.573 6.568-9.888 8.295-15.723 3.412-11.525 2.131-23.69-3.607-34.252-11.845-21.802-39.217-29.906-61.022-18.061-6.022 3.272-14.897 9.864-23.877 17.542 1.33-7.732 2.112-14.647 2.112-19.506 0-24.813-20.187-45-45-45s-45 20.187-45 45c0 4.859.782 11.774 2.113 19.505-8.98-7.677-17.854-14.27-23.877-17.542-21.802-11.845-49.178-3.742-61.022 18.061-5.738 10.562-7.02 22.727-3.607 34.252 1.727 5.835 4.556 11.15 8.295 15.723h-100.902c-8.284 0-15 6.716-15 15v89c0 8.284 6.716 15 15 15h9v263c0 8.284 6.716 15 15 15h400c8.284 0 15-6.716 15-15v-262.999h9c8.284 0 15-6.716 15-15v-89c0-8.284-6.716-15-15-15zm-15 89h-9-155v-59h164zm-224-59h30v337h-30zm67.483-48.76c12.23-11.677 24.297-20.577 28.601-22.915 2.269-1.232 4.718-1.817 7.135-1.817 5.325 0 10.49 2.839 13.206 7.838 1.913 3.521 2.34 7.576 1.203 11.417-1.138 3.842-3.703 7.011-7.224 8.924-4.304 2.338-18.337 7.616-34.79 11.521-10.306 2.446-17.849 3.471-23.087 3.792h-1.84c3.011-4.308 8.213-10.566 16.796-18.76zm-52.483-66.24c8.271 0 15 6.729 15 15 0 4.897-2.061 19.749-6.483 36.07-3.125 11.532-6.161 19.12-8.517 23.815-2.355-4.695-5.392-12.283-8.517-23.815-4.422-16.321-6.483-31.173-6.483-36.07 0-8.271 6.729-15 15-15zm-60.614 81.208c-16.453-3.905-30.486-9.183-34.79-11.521-3.521-1.913-6.086-5.082-7.224-8.924-1.137-3.842-.71-7.896 1.203-11.417 3.949-7.269 13.075-9.968 20.341-6.021 4.304 2.338 16.37 11.238 28.601 22.915 8.583 8.194 13.786 14.452 16.796 18.76h-1.84c-5.239-.321-12.783-1.347-23.087-3.792zm-148.386 33.792h164v59h-155-9zm24 89h140v248h-140zm370 248h-140v-248h140z"></path></svg>